PathFileType	4	(X/Y/Z)	/Users/visionmauri/1_9_1_f_Sports2D/1_9_1_f_Sports2D_m_person00.trc
DataRate	CameraRate	NumFrames	NumMarkers	Units	OrigDataRate	OrigDataStartFrame	OrigNumFrames
30.0	30.0	10	22	m	30.0	0	349
Frame#	Time	Hip			RHip			RKnee			RAnkle			RBigToe			RSmallToe			RHeel			LHip			LKnee			LAnkle			LBigToe			LSmallToe			LHeel			Neck			Head			Nose			RShoulder			RElbow			RWrist			LShoulder			LElbow			LWrist			
		X1	Y1	Z1	X2	Y2	Z2	X3	Y3	Z3	X4	Y4	Z4	X5	Y5	Z5	X6	Y6	Z6	X7	Y7	Z7	X8	Y8	Z8	X9	Y9	Z9	X10	Y10	Z10	X11	Y11	Z11	X12	Y12	Z12	X13	Y13	Z13	X14	Y14	Z14	X15	Y15	Z15	X16	Y16	Z16	X17	Y17	Z17	X18	Y18	Z18	X19	Y19	Z19	X20	Y20	Z20	X21	Y21	Z21	X22	Y22	Z22
0	0.0	0.9101404777458568	0.7748540066308128	0.0301	1.0306410772627543	0.8751905342595911	0.0301	1.5344031895534118	0.3451608332896001	0.129	1.884787424015339	-0.20220251620957735	0.023	2.032777457978504	-0.08810191279978376	0.2179	2.0798306447353507	-0.11365473909325734	0.1804	1.9121387654757602	-0.29998255884527514	-0.0119	0.8117677404827932	0.6736085487558191	0.0301	1.1754410171572651	0.2886044718103293	0.129	1.5703553358537132	-0.16153149441499934	0.023	1.5979450965228108	-0.21703420047183425	0.2179	1.5499908185819282	-0.25557909103828963	0.1804	1.6366473879788157	-0.23299993007203038	-0.0119	0.36265393774208654	1.3819912856657974	0.0008	0.16387704094809313	1.5608222431900487	0.0655	0.28894194056887235	1.4465151868316002	0.1076	0.6070120168384951	1.5234755517642762	-0.01275	1.0129087242411223	1.2604378795256215	0.0702	1.201499720322582	1.0405656654732036	0.1076	0.21319881560512702	1.1500956322390175	-0.01275	0.438328821353728	0.7100642374241034	0.0702	0.45238491761787947	0.7414723511238445	0.1076
1	0.03342911877394636	0.9058984695599661	0.7769985540886971	0.0301	1.029743058719138	0.8733113167728448	0.0301	1.5331893445435618	0.34636465930788707	0.129	1.8823026942049368	-0.20019753261704476	0.023	2.034056469141509	-0.08733153878657322	0.2179	2.0780576294911186	-0.11333695539169074	0.1804	1.9115769405602177	-0.3004983728322083	-0.0119	0.8086466117146027	0.670574197837915	0.0301	1.1757730733759992	0.2844238584088461	0.129	1.588793973681388	-0.17743977770577765	0.023	1.6048163721121314	-0.23041534330776703	0.2179	1.5642127667505816	-0.27046392572559164	0.1804	1.4652881324075984	-0.04837299517804153	-0.0119	0.35969293910111677	1.3782198630165927	0.0008	0.16215485329466237	1.5555037273873162	0.0655	0.28477318722237477	1.4433436143479565	0.1076	0.6096448972889355	1.5198951973059718	-0.01275	1.0101828202960574	1.2561692413080008	0.0702	1.2031745351691299	1.0414230389378065	0.1076	0.21334398012435873	1.1470971291015748	-0.01275	0.4375875060526519	0.7079438767305185	0.0702	0.4497575241103421	0.7356286017936641	0.1076
2	0.06685823754789272	0.8988135583964931	0.777590992500544	0.0301	1.0267781873744268	0.8687096628170976	0.0301	1.5274607101288915	0.35300857880887226	0.129	1.8752311424068642	-0.18816902247438608	0.023	2.037611960411256	-0.08345297214024942	0.2179	2.075800298688097	-0.11014644392415565	0.1804	1.904538355959763	-0.29045715953459794	-0.0119	0.8030622750559603	0.6656461756254316	0.0301	1.1724782287905562	0.2803597861195717	0.129	1.6059161834845785	-0.19287632235030747	0.023	1.6042644721275523	-0.23621953684672914	0.2179	1.5733399634916716	-0.27946921297949257	0.1804	1.2539107641415632	0.17925696404073965	-0.0119	0.3532938155523437	1.3721977590509555	0.0008	0.15777967418071998	1.5470855052567574	0.0655	0.27628089858062255	1.4367381929777885	0.1076	0.6064645299137481	1.5114994394517156	-0.01275	1.0039853238145164	1.2519277065820462	0.0702	1.2038601843448618	1.042235647570519	0.1076	0.21258933036494032	1.1368473773586332	-0.01275	0.4319439899638199	0.7021008508064287	0.0702	0.4408851103892592	0.7276036934082107	0.1076
3	0.10028735632183908	0.8883276622196823	0.7755746482985788	0.0301	1.019640795710029	0.8620695556075124	0.0301	1.5141562977006249	0.3680250601697473	0.129	1.8615388376694184	-0.16197204062563744	0.023	2.0441982394362066	-0.07538463598735332	0.2179	2.0732279163853673	-0.10171574253548593	0.1804	1.8880026687991345	-0.2640247138858911	-0.0119	0.7950282031415303	0.6597862405450778	0.0301	1.1672854788014186	0.27596731251774276	0.129	1.6123863267745315	-0.1989522390490321	0.023	1.5951702499235019	-0.23145584775719955	0.2179	1.5733950195688393	-0.2782020458890839	0.1804	1.0595230578501424	0.38607081268797694	-0.0119	0.344211121921921	1.3630485055247692	0.0008	0.15033103861679734	1.5370868764779326	0.0655	0.2645702453578602	1.4274278012532604	0.1076	0.5957895308389192	1.4994103690029639	-0.01275	0.993650351997415	1.2487861396305882	0.0702	1.2029680508366776	1.0430726439113178	0.1076	0.20957311753958324	1.1206522200157332	-0.01275	0.42112526982573695	0.692519103856337	0.0702	0.42185284718122285	0.721262885716539	0.1076
4	0.13371647509578544	0.8757065255732015	0.7727453000723862	0.0301	1.0076909954643032	0.8572632079790817	0.0301	1.493477160926756	0.3906272601630406	0.129	1.840689481926424	-0.12349705596073318	0.023	2.051895962205165	-0.06424490407927606	0.2179	2.069749201636163	-0.08752472490927253	0.1804	1.8636403874477498	-0.22438675259933655	-0.0119	0.785850389266255	0.6566455877507513	0.0301	1.1643923244879801	0.26994554544512717	0.129	1.5788586765818777	-0.1630202902914986	0.023	1.587571082765873	-0.22128576826419175	0.2179	1.5696434454559307	-0.2721300780184394	0.1804	0.9455066403342065	0.5043677771514234	-0.0119	0.3344799990553705	1.3512231905368817	0.0008	0.14209615874938647	1.5270104347749651	0.0655	0.2536381041528699	1.416863113108485	0.1076	0.5815022121116278	1.487478223846159	-0.01275	0.9819610185626246	1.2467018232083533	0.0702	1.2014342597866217	1.043999589677819	0.1076	0.20369785538284246	1.105404054803459	-0.01275	0.40925715929835943	0.6805774722304043	0.0702	0.3959291073781756	0.7210524668284497	0.1076
5	0.1671455938697318	0.8639728606775614	0.7717480098769984	0.0301	0.994609397879828	0.8558946849987468	0.0301	1.4698346730219216	0.41580991139557094	0.129	1.8151665654267355	-0.08010442619347942	0.023	2.0540906651612976	-0.05450661622914743	0.2179	2.0635842719408557	-0.07079963924264691	0.1804	1.8383072493228874	-0.18264727359979382	-0.0119	0.7784442600760404	0.6572733911173766	0.0301	1.162814807445078	0.2644474730218329	0.129	1.4704591866765695	-0.04565980123625991	0.023	1.5885745648470047	-0.20771754957159227	0.2179	1.5697730096842601	-0.2695769811457574	0.1804	0.9170249806634715	0.5338874377557762	-0.0119	0.3251908569415962	1.3390845978623471	0.0008	0.13567354265781642	1.5158404600751334	0.0655	0.2452620311409746	1.4037461611346853	0.1076	0.5681510935128776	1.4764666394105859	-0.01275	0.9719269915111126	1.2445236950418124	0.0702	1.2001518009351746	1.0442497031989102	0.1076	0.19613807006226755	1.0942117694809532	-0.01275	0.3994949957126391	0.6687087831842098	0.0702	0.37579313059192837	0.7222857558478155	0.1076
6	0.20057471264367815	0.8567959193574411	0.7715703585717097	0.0301	0.9867860523097255	0.8545905714776448	0.0301	1.4483506358024496	0.4363649111213301	0.129	1.7911321995339498	-0.04220532093445345	0.023	2.0384856751478235	-0.054423542297721325	0.2179	2.0502685028152654	-0.05754647779924715	0.1804	1.8208928129114224	-0.14898479536212095	-0.0119	0.7770428220890565	0.6568624897814787	0.0301	1.158982178198356	0.2635693718922049	0.129	1.3159279041308207	0.12085388925911944	0.023	1.5913714764926798	-0.18923234174072665	0.2179	1.5743880598016862	-0.2732388963895794	0.1804	0.9395467980912106	0.5145342000087841	-0.0119	0.31738417791601947	1.328840626810713	0.0008	0.13083783894894108	1.5037106498019197	0.0655	0.238925601185438	1.3862894821675817	0.1076	0.5573442647432839	1.4652456419286848	-0.01275	0.9630826170405967	1.2423432093958557	0.0702	1.1984463300418429	1.043026982967457	0.1076	0.1890821767555542	1.0844110192705225	-0.01275	0.3911434775954674	0.6614956250523706	0.0702	0.3720636268265611	0.7134977991769306	0.1076
7	0.2340038314176245	0.8548877729412219	0.770061586782727	0.0301	0.987056046825393	0.8512155642653585	0.0301	1.4313805976106833	0.4469903571581892	0.129	1.7720109613955832	-0.01385327292918891	0.023	1.9945405567359331	-0.06783789056142561	0.2179	2.021377766981034	-0.05048797360993926	0.1804	1.8135697538372508	-0.12295298430683935	-0.0119	0.7814011708820641	0.652636328415778	0.0301	1.1532972968771846	0.2671788845192984	0.129	1.196346003746325	0.24664606456675117	0.023	1.5895498971198108	-0.1719270267430175	0.2179	1.58144487598032	-0.2822844576885598	0.1804	0.9638877462370212	0.49599429560487884	-0.0119	0.3097547428117247	1.3206579632478643	0.0008	0.12682148096190538	1.4910419160740742	0.0655	0.23471506798443842	1.3663746872831812	0.1076	0.5487516529401503	1.4546603907747915	-0.01275	0.9538889244540946	1.241372199320005	0.0702	1.195445414383929	1.0415087055207453	0.1076	0.18418966580383958	1.0727135638386711	-0.01275	0.3841558171441215	0.6592507906948676	0.0702	0.38467951306592235	0.6886455689845498	0.1076
8	0.2674329501915709	0.8537888311777267	0.7697760372370199	0.0301	0.9921056101952372	0.8479475226520371	0.0301	1.4186473465167835	0.4474896897743202	0.129	1.7559907726751145	0.009136096149707784	0.023	1.9269390252893293	-0.08424096440995435	0.2179	1.9731563882469725	-0.04544905110192708	0.1804	1.8090673103570054	-0.09629071128027325	-0.0119	0.7846635374766575	0.6498337688157385	0.0301	1.1475497782176023	0.27248468296984596	0.129	1.14135370291396	0.3020331740085172	0.023	1.5699484815343363	-0.1414411592717453	0.2179	1.583487054090887	-0.2823564651967437	0.1804	0.9659759953058227	0.4999745447512627	-0.0119	0.2995165952667351	1.315027458078336	0.0008	0.1261965811705351	1.4760797101872614	0.0655	0.23351043815708447	1.3511527833116448	0.1076	0.5418342500409195	1.4468177418205879	-0.01275	0.9458051759821325	1.2413741475903124	0.0702	1.1908968539258642	1.0416387644546976	0.1076	0.18151065544394154	1.0594965357443835	-0.01275	0.3815947343312515	0.6561516427509506	0.0702	0.40573438727062416	0.655596073472032	0.1076
9	0.30086206896551726	0.848592283666387	0.7743795926135024	0.0301	0.9953053352985641	0.846892660166916	0.0301	1.4064542348876656	0.44381806640860577	0.129	1.7425098190200612	0.027135992724159452	0.023	1.8565366472376028	-0.08825181074005248	0.2179	1.9177461000063438	-0.03820865271920586	0.1804	1.8009281026452226	-0.0684195267093245	-0.0119	0.7811645433642956	0.6533116591398139	0.0301	1.1412457392811128	0.2779225399093417	0.129	1.1289082337978473	0.3150275988916377	0.023	1.5046895433345382	-0.057572401803209744	0.2179	1.5531880838141872	-0.23736375210275887	0.1804	0.9606738115196594	0.5093236331819401	-0.0119	0.28870246454499343	1.3116630754506617	0.0008	0.13074474064018657	1.4589974210151637	0.0655	0.23581365250383776	1.3448445528166928	0.1076	0.5371983314086306	1.4412947770432811	-0.01275	0.9407140831844161	1.2404954596897968	0.0702	1.1858621641316838	1.0433099226287215	0.1076	0.1804849469479602	1.0482582436332444	-0.01275	0.38281235084021775	0.651033631677661	0.0702	0.423310698632316	0.6298657501228362	0.1076
